{"title":"The Slaughter Rule (2002)","uid":7498879,"size":736975940,"categoryP":"video","categoryS":"movies","magnet":"?xt=urn:btih:f6aa8a2437936a4ff88e1f3f67cec1c51ebf9102&amp;dn=The+Slaughter+Rule+%282002%29&amp;tr=udp%3A%2F%2Ftracker.openbittorrent.com%3A80&amp;tr=udp%3A%2F%2Fopen.demonii.com%3A1337&amp;tr=udp%3A%2F%2Ftracker.coppersurfer.tk%3A6969&amp;tr=udp%3A%2F%2Fexodus.desync.com%3A6969","seeders":4,"leechers":0,"uploader":"movieZ.freak","files":3,"time":1343958136,"description":"The Slaughter Rule (2002) DVDRIP_XviD_eng + Serbian subtitle + DVD Cover_Custom\n\n      Format : AVI\n      Format/Info : Audio Video Interleave\n      File size : 702 MiB\n      Duration : 1h 56mn\n      Overall bit rate mode : Variable\n      Overall bit rate : 842 Kbps\n      Writing application : Nandub v1.0rc2\n      Writing library : Nandub build 1853/release\n   Video #0\n      ID : 0\n      Format : MPEG-4 Visual\n      Format settings, BVOP : No\n      Format settings, QPel : No\n      Format settings, GMC : No warppoints\n      Format settings, Matrix : Default (MPEG)\n      Codec ID : XVID\n      Codec ID/Hint : XviD\n      Duration : 1h 56mn\n      Bit rate : 685 Kbps\n      Width : 560 pixels\n      Height : 240 pixels\n      Display aspect ratio : 2.35:1\n      Frame rate : 23.976 fps\n      Color space : YUV\n      Chroma subsampling : 4:2:0\n      Bit depth : 8 bits\n      Scan type : Progressive\n      Compression mode : Lossy\n      Bits/(Pixel*Frame) : 0.213\n      Stream size : 571 MiB (81%)\n   Audio #1\n      ID : 1\n      Format : MPEG Audio\n      Format version : Version 1\n      Format profile : Layer 3\n      Mode : Joint stereo\n      Mode extension : MS Stereo\n      Codec ID : 55\n      Codec ID/Hint : MP3\n      Duration : 1h 56mn\n      Bit rate mode : Variable\n      Bit rate : 144 Kbps\n      Channel(s) : 2 channels\n      Sampling rate : 48.0 KHz\n      Compression mode : Lossy\n      Stream size : 120 MiB (17%)\n      Alignment : Aligned on interleaves\n      Interleave, duration : 24 ms (0.58 video frame)\n      Interleave, preload duration : 122 ms\n      Writing library : LAME3.92 \n      Encoding settings : -m j -V 1 -q 2 -lowpass 19.5 --vbr-new","torrent":{"xt":"urn:btih:f6aa8a2437936a4ff88e1f3f67cec1c51ebf9102","amp;dn":"The+Slaughter+Rule+%282002%29","amp;tr":["udp%3A%2F%2Ftracker.openbittorrent.com%3A80","udp%3A%2F%2Fopen.demonii.com%3A1337","udp%3A%2F%2Ftracker.coppersurfer.tk%3A6969","udp%3A%2F%2Fexodus.desync.com%3A6969"],"infoHash":"f6aa8a2437936a4ff88e1f3f67cec1c51ebf9102","infoHashBuffer":{"type":"Buffer","data":[246,170,138,36,55,147,106,79,248,142,31,63,103,206,193,197,30,191,145,2]},"announce":[],"urlList":[]}}